<svg height="512pt" viewBox="0 -55 512 512" width="512pt" xmlns="http://www.w3.org/2000/svg"><path d="m443.734375 68.457031c.03125 27.738281-22.054687 50.445313-49.785156 51.1875-27.730469.738281-50.996094-20.757812-52.445313-48.457031 12.800782-12.035156 32.851563-28.332031 55.296875-28.332031 18.003907 0 34.386719 13.484375 46.761719 21.675781.085938 1.277344.171875 2.558594.171875 3.925781zm0 0" fill="#fdd7ad"/><path d="m417.449219 181.351562c-1.527344 7.285157-5.808594 13.703126-11.945313 17.917969-16.554687-11.175781-36.523437-11.347656-66.988281-11.347656-44.371094 0-66.472656 18.347656-87.976563 36.097656-19.96875 16.554688-38.828124 32.167969-77.054687 32.167969-38.144531 0-57.003906-15.613281-77.058594-32.167969-5.460937-4.523437-10.921875-17.582031-16.808593-21.847656l190.976562-83.371094-48.042969-51.027343c-2.492187-2.601563-6.335937-3.382813-9.644531-1.964844l-76.289062 33.367187c-15.128907 6.570313-32.722657-.335937-39.335938-15.445312-1.644531-3.738281-2.488281-7.777344-2.476562-11.863281-.058594-11.917969 6.992187-22.722657 17.921874-27.476563l62.207032-27.136719 31.402344-13.652344c16.472656-7.257812 35.734374-3.324218 48.042968 9.8125l22.953125 24.320313 52.140625 55.382813c12.707032 13.542968 23.011719 29.15625 30.464844 46.164062 1.53125 3.636719 5.097656 5.992188 9.042969 5.972656h19.285156c9.015625-.007812 17.554687 4.0625 23.222656 11.070313 5.667969 7.011719 7.859375 16.210937 5.960938 25.027343zm0 0" fill="#f9c795"/><path d="m512 256.1875c-.011719 4.707031-3.824219 8.519531-8.535156 8.535156-44.285156 0-66.472656-18.347656-87.890625-36.097656-20.054688-16.554688-38.914063-32.167969-77.058594-32.167969-38.226563 0-57.085937 15.613281-77.054687 32.167969-21.417969 17.75-43.605469 36.097656-87.976563 36.097656-44.289063 0-66.476563-18.347656-87.894531-36.097656-19.96875-16.554688-38.914063-32.167969-77.054688-32.167969-4.714844 0-8.535156-3.824219-8.535156-8.535156s3.820312-8.535156 8.535156-8.535156c25.589844-.691407 50.660156 7.34375 71.082032 22.785156 5.886718 4.265625 11.347656 8.789063 16.808593 13.3125 20.054688 16.554687 38.914063 32.171875 77.058594 32.171875 38.226563 0 57.085937-15.617188 77.054687-32.171875 21.503907-17.75 43.605469-36.097656 87.976563-36.097656 23.875-.65625 47.339844 6.308593 66.988281 19.882812 7.425782 5.035157 14.25 10.667969 20.90625 16.214844 19.96875 16.554687 38.914063 32.171875 77.054688 32.171875 4.710937.011719 8.523437 3.824219 8.535156 8.53125zm0 0" fill="#4482c3"/><path d="m503.464844 332.988281c-44.316406 0-66.480469-18.347656-87.921875-36.097656-19.992188-16.539063-38.875-32.167969-77.042969-32.167969-38.164062 0-57.058594 15.628906-77.050781 32.167969-21.441407 17.75-43.617188 36.097656-87.933594 36.097656s-66.492187-18.347656-87.933594-36.097656c-19.992187-16.539063-38.875-32.167969-77.046875-32.167969-4.714844 0-8.535156-3.820312-8.535156-8.535156 0-4.710938 3.820312-8.53125 8.535156-8.53125 44.316406 0 66.488282 18.34375 87.929688 36.09375 19.992187 16.542969 38.875 32.171875 77.050781 32.171875 38.179687 0 57.058594-15.628906 77.050781-32.171875 21.441406-17.75 43.617188-36.09375 87.933594-36.09375s66.484375 18.34375 87.925781 36.09375c19.992188 16.542969 38.875 32.171875 77.039063 32.171875 4.714844 0 8.535156 3.820313 8.535156 8.535156 0 4.710938-3.820312 8.53125-8.535156 8.53125zm0 0" fill="#285680"/><path d="m503.464844 401.253906c-44.316406 0-66.480469-18.34375-87.921875-36.09375-19.992188-16.542968-38.875-32.171875-77.042969-32.171875-38.164062 0-57.058594 15.628907-77.050781 32.171875-21.441407 17.75-43.617188 36.09375-87.933594 36.09375s-66.492187-18.34375-87.933594-36.09375c-19.992187-16.542968-38.875-32.171875-77.046875-32.171875-4.714844 0-8.535156-3.820312-8.535156-8.53125 0-4.714843 3.820312-8.535156 8.535156-8.535156 44.316406 0 66.488282 18.347656 87.929688 36.097656 19.992187 16.539063 38.875 32.167969 77.050781 32.167969 38.179687 0 57.058594-15.628906 77.050781-32.167969 21.441406-17.75 43.617188-36.097656 87.933594-36.097656s66.484375 18.347656 87.925781 36.097656c19.992188 16.539063 38.875 32.167969 77.039063 32.167969 4.714844 0 8.535156 3.820312 8.535156 8.535156 0 4.710938-3.820312 8.53125-8.535156 8.53125zm0 0" fill="#4482c3"/><path d="m443.5625 64.53125c-13.980469-8.828125-30.230469-13.394531-46.761719-13.144531-20.253906-.519531-39.976562 6.539062-55.296875 19.800781-.144531-.902344-.203125-1.820312-.171875-2.730469-.003906-27.511719 21.738281-50.105469 49.226563-51.160156 27.488281-1.054687 50.898437 19.804687 53.003906 47.234375zm0 0" fill="#cc4b4c"/></svg>